<svg width="21" height="123" viewBox="0 0 21 123" fill="none" xmlns="http://www.w3.org/2000/svg">
<circle cx="10.5" cy="36.5" r="1.5" fill="#818C99"/>
<circle cx="10.5" cy="28.5" r="1.5" fill="#818C99"/>
<circle cx="10.5" cy="20.5" r="1.5" fill="#818C99"/>
<circle cx="10.5" cy="12.5" r="1.5" fill="#818C99"/>
<circle cx="10.5" cy="4.5" r="1.5" fill="#818C99"/>
<circle cx="10.5" cy="44.5" r="1.5" fill="#818C99"/>
<circle cx="10.5" cy="52.5" r="1.5" fill="#818C99"/>
<circle cx="10.5" cy="60.5" r="1.5" fill="#818C99"/>
<circle cx="10.5" cy="68.5" r="1.5" fill="#818C99"/>
<circle cx="10.5" cy="76.5" r="1.5" fill="#818C99"/>
<circle cx="10.5" cy="84.5" r="1.5" fill="#818C99"/>
<circle cx="10.5" cy="92.5" r="1.5" fill="#818C99"/>
<circle cx="10.5" cy="100.5" r="1.5" fill="#818C99"/>
<circle cx="10.5" cy="108.5" r="1.5" fill="#818C99"/>
<circle cx="10.5" cy="116.5" r="1.5" fill="#818C99"/>
<rect width="21" height="42" fill="url(#paint0_linear_59_1031)"/>
<rect x="21" y="123" width="21" height="42" transform="rotate(-180 21 123)" fill="url(#paint1_linear_59_1031)"/>
<defs>
<linearGradient id="paint0_linear_59_1031" x1="10.5" y1="0" x2="10.5" y2="42" gradientUnits="userSpaceOnUse">
<stop stop-color="#0B0C11"/>
<stop offset="1" stop-color="#0B0D11" stop-opacity="0"/>
</linearGradient>
<linearGradient id="paint1_linear_59_1031" x1="31.5" y1="123" x2="31.5" y2="165" gradientUnits="userSpaceOnUse">
<stop stop-color="#0B0C11"/>
<stop offset="1" stop-color="#0B0D11" stop-opacity="0"/>
</linearGradient>
</defs>
</svg>
